<svg width="600" height="400" viewBox="0 0 600 400" xmlns="http://www.w3.org/2000/svg">
  <!-- Background -->
  <rect width="600" height="400" fill="#FAFAFA"/>
  
  <!-- Sky -->
  <rect x="0" y="0" width="600" height="200" fill="#B3DDF2"/>
  
  <!-- Sun -->
  <circle cx="500" cy="60" r="40" fill="#F5B041"/>
  
  <!-- Farm buildings -->
  <rect x="100" y="150" width="120" height="80" fill="#8B5E3C"/>
  <polygon points="100,150 160,110 220,150" fill="#6B8E23"/>
  <rect x="120" y="170" width="20" height="30" fill="#4A5568"/>
  <rect x="160" y="170" width="20" height="30" fill="#4A5568"/>
  
  <!-- Barn -->
  <rect x="300" y="140" width="150" height="100" fill="#8B5E3C"/>
  <polygon points="300,140 375,100 450,140" fill="#6B8E23"/>
  <rect x="320" y="160" width="30" height="50" fill="#4A5568"/>
  <rect x="370" y="160" width="30" height="50" fill="#4A5568"/>
  
  <!-- Fields -->
  <rect x="50" y="250" width="100" height="80" fill="#A8D5BA"/>
  <rect x="170" y="250" width="100" height="80" fill="#6B8E23"/>
  <rect x="290" y="250" width="100" height="80" fill="#A8D5BA"/>
  <rect x="410" y="250" width="100" height="80" fill="#6B8E23"/>
  
  <!-- Crops -->
  <line x1="60" y1="280" x2="60" y2="250" stroke="#8B5E3C" stroke-width="3"/>
  <line x1="70" y1="280" x2="70" y2="250" stroke="#8B5E3C" stroke-width="3"/>
  <line x1="80" y1="280" x2="80" y2="250" stroke="#8B5E3C" stroke-width="3"/>
  <line x1="90" y1="280" x2="90" y2="250" stroke="#8B5E3C" stroke-width="3"/>
  
  <line x1="180" y1="280" x2="180" y2="250" stroke="#8B5E3C" stroke-width="3"/>
  <line x1="190" y1="280" x2="190" y2="250" stroke="#8B5E3C" stroke-width="3"/>
  <line x1="200" y1="280" x2="200" y2="250" stroke="#8B5E3C" stroke-width="3"/>
  <line x1="210" y1="280" x2="210" y2="250" stroke="#8B5E3C" stroke-width="3"/>
  
  <line x1="300" y1="280" x2="300" y2="250" stroke="#8B5E3C" stroke-width="3"/>
  <line x1="310" y1="280" x2="310" y2="250" stroke="#8B5E3C" stroke-width="3"/>
  <line x1="320" y1="280" x2="320" y2="250" stroke="#8B5E3C" stroke-width="3"/>
  <line x1="330" y1="280" x2="330" y2="250" stroke="#8B5E3C" stroke-width="3"/>
  
  <line x1="420" y1="280" x2="420" y2="250" stroke="#8B5E3C" stroke-width="3"/>
  <line x1="430" y1="280" x2="430" y2="250" stroke="#8B5E3C" stroke-width="3"/>
  <line x1="440" y1="280" x2="440" y2="250" stroke="#8B5E3C" stroke-width="3"/>
  <line x1="450" y1="280" x2="450" y2="250" stroke="#8B5E3C" stroke-width="3"/>
  
  <!-- Trees -->
  <circle cx="80" cy="280" r="25" fill="#6B8E23"/>
  <circle cx="520" cy="280" r="25" fill="#6B8E23"/>
  
  <!-- Award/Trophy -->
  <circle cx="300" cy="100" r="30" fill="#F5B041"/>
  <text x="300" y="105" text-anchor="middle" fill="white" font-family="Arial" font-size="12" font-weight="bold">★</text>
  <text x="300" y="120" text-anchor="middle" fill="white" font-family="Arial" font-size="8">EXCELLENCE</text>
  
  <!-- Birds -->
  <path d="M150 80 Q160 70 170 80 Q160 90 150 80" fill="#4A5568"/>
  <path d="M180 75 Q190 65 200 75 Q190 85 180 75" fill="#4A5568"/>
  
  <!-- Ground -->
  <rect x="0" y="330" width="600" height="70" fill="#A8D5BA"/>
  
  <!-- Quality indicators -->
  <circle cx="50" cy="50" r="15" fill="#6B8E23"/>
  <text x="50" y="55" text-anchor="middle" fill="white" font-family="Arial" font-size="8">QUALITY</text>
  
  <circle cx="550" cy="50" r="15" fill="#6B8E23"/>
  <text x="550" y="55" text-anchor="middle" fill="white" font-family="Arial" font-size="8">TRUST</text>
</svg>
