<svg width="400" height="300" viewBox="0 0 400 300" xmlns="http://www.w3.org/2000/svg">
  <!-- Background -->
  <rect width="400" height="300" fill="#FAFAFA"/>
  
  <!-- Potato 1 -->
  <ellipse cx="120" cy="150" rx="25" ry="35" fill="#8B5E3C"/>
  <ellipse cx="115" cy="145" rx="3" ry="3" fill="#6B8E23"/>
  <ellipse cx="125" cy="155" rx="2" ry="2" fill="#6B8E23"/>
  <ellipse cx="130" cy="140" rx="2" ry="2" fill="#6B8E23"/>
  
  <!-- Potato 2 -->
  <ellipse cx="200" cy="150" rx="30" ry="40" fill="#8B5E3C"/>
  <ellipse cx="195" cy="145" rx="3" ry="3" fill="#6B8E23"/>
  <ellipse cx="205" cy="155" rx="2" ry="2" fill="#6B8E23"/>
  <ellipse cx="210" cy="140" rx="2" ry="2" fill="#6B8E23"/>
  <ellipse cx="195" cy="160" rx="2" ry="2" fill="#6B8E23"/>
  
  <!-- Potato 3 -->
  <ellipse cx="280" cy="150" rx="28" ry="38" fill="#8B5E3C"/>
  <ellipse cx="275" cy="145" rx="3" ry="3" fill="#6B8E23"/>
  <ellipse cx="285" cy="155" rx="2" ry="2" fill="#6B8E23"/>
  <ellipse cx="290" cy="140" rx="2" ry="2" fill="#6B8E23"/>
  <ellipse cx="275" cy="160" rx="2" ry="2" fill="#6B8E23"/>
  
  <!-- Potato 4 -->
  <ellipse cx="160" cy="200" rx="22" ry="32" fill="#8B5E3C"/>
  <ellipse cx="155" cy="195" rx="3" ry="3" fill="#6B8E23"/>
  <ellipse cx="165" cy="205" rx="2" ry="2" fill="#6B8E23"/>
  
  <!-- Potato 5 -->
  <ellipse cx="240" cy="200" rx="26" ry="36" fill="#8B5E3C"/>
  <ellipse cx="235" cy="195" rx="3" ry="3" fill="#6B8E23"/>
  <ellipse cx="245" cy="205" rx="2" ry="2" fill="#6B8E23"/>
  <ellipse cx="250" cy="190" rx="2" ry="2" fill="#6B8E23"/>
  
  <!-- Basket -->
  <path d="M50 220 Q200 180 350 220 L340 280 Q200 320 60 280 Z" fill="#6B8E23"/>
  <path d="M50 220 Q200 200 350 220" stroke="#8B5E3C" stroke-width="3" fill="none"/>
  <path d="M60 240 Q200 220 340 240" stroke="#8B5E3C" stroke-width="2" fill="none"/>
  <path d="M70 260 Q200 240 330 260" stroke="#8B5E3C" stroke-width="2" fill="none"/>
  
  <!-- Basket handle -->
  <path d="M80 200 Q200 160 320 200" stroke="#8B5E3C" stroke-width="4" fill="none"/>
  
  <!-- Ground -->
  <rect x="0" y="280" width="400" height="20" fill="#A8D5BA"/>
</svg>
