<svg width="600" height="400" viewBox="0 0 600 400" xmlns="http://www.w3.org/2000/svg">
  <!-- Sky -->
  <rect width="600" height="400" fill="#B3DDF2"/>
  
  <!-- Sun -->
  <circle cx="500" cy="80" r="40" fill="#F5B041"/>
  
  <!-- Hills -->
  <path d="M0 300 Q150 200 300 300 Q450 200 600 300 L600 400 L0 400 Z" fill="#6B8E23"/>
  <path d="M0 320 Q150 220 300 320 Q450 220 600 320 L600 400 L0 400 Z" fill="#8B5E3C"/>
  
  <!-- Farm fields -->
  <rect x="50" y="250" width="100" height="80" fill="#A8D5BA"/>
  <rect x="170" y="250" width="100" height="80" fill="#6B8E23"/>
  <rect x="290" y="250" width="100" height="80" fill="#A8D5BA"/>
  <rect x="410" y="250" width="100" height="80" fill="#6B8E23"/>
  
  <!-- Farm house -->
  <rect x="250" y="200" width="100" height="60" fill="#8B5E3C"/>
  <polygon points="250,200 300,160 350,200" fill="#6B8E23"/>
  <rect x="270" y="220" width="20" height="30" fill="#4A5568"/>
  <rect x="310" y="220" width="20" height="30" fill="#4A5568"/>
  
  <!-- Trees -->
  <circle cx="80" cy="280" r="25" fill="#6B8E23"/>
  <circle cx="520" cy="280" r="25" fill="#6B8E23"/>
  
  <!-- Crops -->
  <line x1="60" y1="280" x2="60" y2="250" stroke="#8B5E3C" stroke-width="3"/>
  <line x1="70" y1="280" x2="70" y2="250" stroke="#8B5E3C" stroke-width="3"/>
  <line x1="80" y1="280" x2="80" y2="250" stroke="#8B5E3C" stroke-width="3"/>
  <line x1="90" y1="280" x2="90" y2="250" stroke="#8B5E3C" stroke-width="3"/>
  
  <!-- Birds -->
  <path d="M100 100 Q110 90 120 100 Q110 110 100 100" fill="#4A5568"/>
  <path d="M130 95 Q140 85 150 95 Q140 105 130 95" fill="#4A5568"/>
</svg>
