<svg width="400" height="300" viewBox="0 0 400 300" xmlns="http://www.w3.org/2000/svg">
  <!-- Background -->
  <rect width="400" height="300" fill="#FAFAFA"/>
  
  <!-- Yam 1 -->
  <ellipse cx="120" cy="150" rx="15" ry="60" fill="#8B5E3C"/>
  <ellipse cx="115" cy="100" rx="2" ry="2" fill="#6B8E23"/>
  <ellipse cx="125" cy="120" rx="2" ry="2" fill="#6B8E23"/>
  <ellipse cx="118" cy="140" rx="2" ry="2" fill="#6B8E23"/>
  <ellipse cx="122" cy="160" rx="2" ry="2" fill="#6B8E23"/>
  <ellipse cx="120" cy="180" rx="2" ry="2" fill="#6B8E23"/>
  
  <!-- Yam 2 -->
  <ellipse cx="200" cy="150" rx="18" ry="65" fill="#8B5E3C"/>
  <ellipse cx="195" cy="95" rx="2" ry="2" fill="#6B8E23"/>
  <ellipse cx="205" cy="115" rx="2" ry="2" fill="#6B8E23"/>
  <ellipse cx="198" cy="135" rx="2" ry="2" fill="#6B8E23"/>
  <ellipse cx="202" cy="155" rx="2" ry="2" fill="#6B8E23"/>
  <ellipse cx="200" cy="175" rx="2" ry="2" fill="#6B8E23"/>
  <ellipse cx="197" cy="195" rx="2" ry="2" fill="#6B8E23"/>
  
  <!-- Yam 3 -->
  <ellipse cx="280" cy="150" rx="16" ry="62" fill="#8B5E3C"/>
  <ellipse cx="275" cy="100" rx="2" ry="2" fill="#6B8E23"/>
  <ellipse cx="285" cy="120" rx="2" ry="2" fill="#6B8E23"/>
  <ellipse cx="278" cy="140" rx="2" ry="2" fill="#6B8E23"/>
  <ellipse cx="282" cy="160" rx="2" ry="2" fill="#6B8E23"/>
  <ellipse cx="280" cy="180" rx="2" ry="2" fill="#6B8E23"/>
  
  <!-- Yam 4 -->
  <ellipse cx="160" cy="220" rx="14" ry="55" fill="#8B5E3C"/>
  <ellipse cx="155" cy="175" rx="2" ry="2" fill="#6B8E23"/>
  <ellipse cx="165" cy="195" rx="2" ry="2" fill="#6B8E23"/>
  <ellipse cx="158" cy="215" rx="2" ry="2" fill="#6B8E23"/>
  
  <!-- Yam 5 -->
  <ellipse cx="240" cy="220" rx="17" ry="58" fill="#8B5E3C"/>
  <ellipse cx="235" cy="175" rx="2" ry="2" fill="#6B8E23"/>
  <ellipse cx="245" cy="195" rx="2" ry="2" fill="#6B8E23"/>
  <ellipse cx="238" cy="215" rx="2" ry="2" fill="#6B8E23"/>
  <ellipse cx="242" cy="235" rx="2" ry="2" fill="#6B8E23"/>
  
  <!-- Traditional basket -->
  <path d="M30 250 Q200 200 370 250 L360 280 Q200 300 40 280 Z" fill="#6B8E23"/>
  <path d="M30 250 Q200 230 370 250" stroke="#8B5E3C" stroke-width="3" fill="none"/>
  <path d="M40 260 Q200 240 360 260" stroke="#8B5E3C" stroke-width="2" fill="none"/>
  <path d="M50 270 Q200 250 350 270" stroke="#8B5E3C" stroke-width="2" fill="none"/>
  
  <!-- Basket handle -->
  <path d="M60 220 Q200 180 340 220" stroke="#8B5E3C" stroke-width="4" fill="none"/>
  
  <!-- Ground -->
  <rect x="0" y="280" width="400" height="20" fill="#A8D5BA"/>
</svg>
